#!OML:ASF I:\Actors\actors\Patient Classification 2\Patient 1\Session 1\actor1.ASF
:FULLY-SPECIFIED
:DEGREES
562
root -0.213343 17.8126 3.49452 27.2596 -42.2824 -9.2604
lowerback 33.7585 -2.89037 -2.09331
upperback 7.02201 -4.84292 -1.60844
thorax -9.40232 -2.32843 1.24542
lowerneck -14.8684 11.1717 12.3965
upperneck 18.3907 14.7684 -11.316
head 10.1098 6.57155 -3.85165
rclavicle 0 6.36111e-015
rhumerus -56.7081 38.0086 -95.6155
rradius 107.861
rwrist 5.38373
rhand -19.0714 -65.8493
rfingers 7.12502
rthumb 7.23624 -264.294
lclavicle 0 6.36111e-015
lhumerus -11.4649 -3.45981 92.2955
lradius 91.0045
lwrist 86.6156
lhand -45.8835 -21.303
lfingers 7.12502
lthumb -18.6336 7.82452
rfemur -17.6432 20.6687 11.8866
rtibia -27.0148
rfoot 15.4875 -11.0961
rtoes -0.922496
lfemur 7.91764 22.6513 -15.2648
ltibia -40.2614
lfoot 13.5729 23.6346
ltoes -15.5734
563
root -0.187201 17.8003 3.47243 27.7461 -41.8731 -9.55407
lowerback 33.706 -2.89229 -2.01732
upperback 7.13392 -4.83494 -1.77434
thorax -9.27959 -2.32969 1.02109
lowerneck -14.7705 11.2383 12.6436
upperneck 18.0684 14.8021 -11.3931
head 10.0093 6.60796 -3.91301
rclavicle 6.36111e-015 5.40694e-014
rhumerus -57.6362 37.2931 -95.7879
rradius 108.069
rwrist 5.82838
rhand -19.0301 -65.71
rfingers 7.12502
rthumb 7.27614 -264.435
lclavicle 6.36111e-015 5.40694e-014
lhumerus -12.0253 -3.3535 92.4223
lradius 90.8612
lwrist 86.3859
lhand -45.7678 -21.2248
lfingers 7.12502
lthumb -18.5224 7.91332
rfemur -18.0861 20.4141 12.0817
rtibia -26.9513
rfoot 15.441 -11.2614
rtoes -0.280383
lfemur 7.57451 22.7766 -15.1421
ltibia -40.7738
lfoot 14.0306 23.3342
ltoes -15.665
564
root -0.154647 17.7829 3.45038 28.3041 -41.3801 -9.94379
lowerback 33.613 -2.99002 -1.70776
upperback 7.31126 -4.87376 -2.00243
thorax -9.09262 -2.35832 0.62195
lowerneck -14.6051 11.2997 12.8376
upperneck 17.5888 14.8234 -11.4191
head 9.83077 6.64622 -3.95313
rclavicle 6.20208e-014 -7.31528e-014
rhumerus -58.256 37.0335 -96.0062
rradius 107.471
rwrist 6.0674
rhand -19.092 -65.2958
rfingers 7.12502
rthumb 7.21637 -264.847
lclavicle 6.20208e-014 -7.31528e-014
lhumerus -12.3998 -3.1686 92.3611
lradius 90.7849
lwrist 86.3882
lhand -45.7108 -20.9364
lfingers 7.12502
lthumb -18.4675 8.20696
rfemur -18.521 20.1354 12.3524
rtibia -26.9489
rfoot 15.3983 -11.3614
rtoes -0.166571
lfemur 7.26162 22.8365 -14.9381
ltibia -41.4211
lfoot 14.6255 23.0287
ltoes -16.0373
565
root -0.120683 17.7611 3.42535 28.9604 -40.8898 -10.3472
lowerback 33.7062 -2.9723 -1.73555
upperback 7.3634 -4.85763 -1.98651
thorax -9.06705 -2.35036 0.648879
lowerneck -14.6779 11.4039 12.9692
upperneck 17.2321 14.9453 -11.6185
head 9.76412 6.69777 -4.01627
rclavicle 1.03368e-013 -1.74931e-014
rhumerus -58.6654 36.9486 -96.0655
rradius 107.022
rwrist 6.25197
rhand -19.131 -65.128
rfingers 7.12502
rthumb 7.17865 -265.014
lclavicle 1.03368e-013 -1.74931e-014
lhumerus -12.6966 -2.76714 92.4911
lradius 90.7648
lwrist 86.5753
lhand -45.7895 -21.0833
lfingers 7.12502
lthumb -18.5432 8.05292
rfemur -19.0406 19.8197 12.6222
rtibia -27.0049
rfoot 15.479 -11.3496
rtoes -0.65024
lfemur 6.88292 22.916 -14.7666
ltibia -42.1721
lfoot 15.3497 22.7338
ltoes -16.4058
566
root -0.0862223 17.736 3.3957 29.7381 -40.411 -10.7339
lowerback 33.5591 -2.93456 -1.64326
upperback 7.45313 -4.78298 -2.08264
thorax -8.92861 -2.32 0.462019
lowerneck -14.7231 11.4422 13.2448
upperneck 16.7675 14.9344 -11.8125
head 9.64874 6.70168 -4.12343
rclavicle 3.65764e-014 -1.74931e-014
rhumerus -58.6147 36.6171 -96.1909
rradius 106.451
rwrist 6.48941
rhand -19.1445 -65.0984
rfingers 7.12502
rthumb 7.16571 -265.043
lclavicle 3.65764e-014 -1.74931e-014
lhumerus -12.7764 -2.69041 92.4116
lradius 90.6742
lwrist 86.824
lhand -45.9039 -21.7638
lfingers 7.12502
lthumb -18.6532 7.36184
rfemur -19.7093 19.4307 12.8675
rtibia -27.1062
rfoot 15.6992 -11.3501
rtoes -0.725321
lfemur 6.3604 23.0058 -14.6663
ltibia -42.9952
lfoot 16.1168 22.4874
ltoes -16.5379
567
root -0.0498435 17.7085 3.36471 30.5665 -39.8802 -11.1435
lowerback 33.4129 -2.88919 -1.51738
upperback 7.50936 -4.68378 -2.14614
thorax -8.82655 -2.27707 0.284353
lowerneck -14.7346 11.4468 13.4105
upperneck 16.3007 14.8804 -11.8955
head 9.50197 6.69028 -4.18465
rclavicle -4.92986e-014 3.18055e-014
rhumerus -58.2577 36.3774 -96.2936
rradius 105.728
rwrist 6.69004
rhand -19.3465 -64.947
rfingers 7.12502
rthumb 6.97065 -265.188
lclavicle -4.92986e-014 3.18055e-014
lhumerus -12.6445 -2.59824 92.2392
lradius 90.3911
lwrist 86.864
lhand -45.9055 -21.9536
lfingers 7.12502
lthumb -18.6548 7.17193
rfemur -20.4459 19.1308 13.0534
rtibia -27.2323
rfoot 15.8407 -11.5123
rtoes -0.502897
lfemur 5.78904 23.0419 -14.5434
ltibia -43.8655
lfoot 16.9055 22.2433
ltoes -16.6557
